<svg width="40" height="26" fill="none" xmlns="http://www.w3.org/2000/svg"><path d="M2.615.594h34.972a1.7 1.7 0 0 1 1.665 1.734v21.674a1.699 1.699 0 0 1-1.665 1.734H2.615A1.7 1.7 0 0 1 .95 24.002V2.328A1.7 1.7 0 0 1 2.615.594Z" fill="#5870BE"/><path d="M17.705 13.16a8.978 8.978 0 1 1 17.956.005 8.978 8.978 0 0 1-17.956-.004Z" fill="#FFAF38"/><path d="M12.925 22.14a8.979 8.979 0 1 1 7.191-14.36h-1.2v.6h1.613c.122.191.236.389.342.589h-2.554v.6h2.843c.087.2.167.4.237.6h-3.68v.6h3.868a9.034 9.034 0 0 1-.193 5.389h-3.675v.6h3.439c-.09.207-.187.4-.285.59h-2.554v.6h2.206c-.133.21-.272.412-.413.601h-1.193v.6h.7a8.991 8.991 0 0 1-6.692 2.99Z" fill="#E63737"/><path d="m3.074 14.813.547-4.26.849.109.62 3.145c.058.293.099.512.123.657.069-.149.173-.367.315-.654l1.4-2.833.758.098-.546 4.26-.544-.07.458-3.566-1.696 3.407-.508-.065-.767-3.785-.465 3.627-.544-.07Zm6.971.507c-.215.14-.417.232-.606.277a1.617 1.617 0 0 1-.588.028c-.339-.043-.589-.16-.75-.347a.831.831 0 0 1-.191-.672.876.876 0 0 1 .464-.667 1.3 1.3 0 0 1 .399-.123 3.78 3.78 0 0 1 .475-.019c.429.004.747-.016.956-.06l.02-.136c.028-.213-.002-.37-.09-.47-.119-.135-.31-.22-.573-.253-.246-.032-.434-.012-.563.06-.127.07-.233.212-.317.423l-.503-.135c.075-.213.174-.38.298-.5a1 1 0 0 1 .502-.251c.21-.048.449-.055.714-.02.264.033.474.092.63.175a.846.846 0 0 1 .333.282.818.818 0 0 1 .118.375c.006.091-.006.253-.036.486l-.09.697c-.062.486-.09.796-.086.928.007.131.035.26.086.387l-.546-.07a1.12 1.12 0 0 1-.056-.395Zm.106-1.173c-.2.053-.493.082-.88.088a1.992 1.992 0 0 0-.469.046.455.455 0 0 0-.333.382.45.45 0 0 0 .113.37c.094.106.243.172.447.198.201.026.386.006.554-.061a.83.83 0 0 0 .392-.32c.072-.11.122-.281.152-.511l.024-.192Zm1.053.773.528-.015c.002.21.062.38.18.507.12.128.298.207.536.238.24.03.425.005.554-.077a.447.447 0 0 0 .218-.324.32.32 0 0 0-.118-.298c-.065-.056-.236-.138-.512-.246-.37-.146-.626-.264-.767-.353a.803.803 0 0 1-.3-.336.799.799 0 0 1-.06-.43.804.804 0 0 1 .143-.37.864.864 0 0 1 .296-.26c.09-.05.206-.085.35-.108.148-.025.301-.026.462-.006.242.031.45.093.623.186a.87.87 0 0 1 .37.337c.072.13.112.296.12.5l-.52.004a.562.562 0 0 0-.157-.398c-.099-.103-.25-.168-.453-.194-.24-.03-.417-.013-.53.053-.113.066-.176.153-.19.26a.291.291 0 0 0 .04.19.465.465 0 0 0 .183.166c.05.026.199.09.445.193.358.146.605.26.742.343.14.081.243.187.31.318.069.13.091.285.068.463a.886.886 0 0 1-.217.475.998.998 0 0 1-.485.3 1.631 1.631 0 0 1-.667.042c-.4-.051-.696-.174-.886-.368-.188-.193-.29-.457-.306-.792Zm4.269 1.008.016.472c-.151.012-.285.01-.401-.004-.19-.024-.333-.073-.43-.147a.51.51 0 0 1-.19-.264c-.03-.104-.026-.313.015-.627l.227-1.775-.383-.05.052-.406.384.049.098-.764.56-.247-.138 1.078.526.067-.052.407-.526-.068-.232 1.805a.968.968 0 0 0-.01.291.23.23 0 0 0 .076.113c.04.031.098.051.176.061.058.008.135.01.232.01Zm2.694-.189.532.137c-.126.305-.315.53-.568.674-.253.145-.558.194-.917.148-.451-.058-.792-.242-1.022-.553-.227-.313-.309-.72-.245-1.222.067-.52.252-.905.556-1.157.305-.253.67-.352 1.096-.297.413.053.732.237.957.551.226.315.306.727.24 1.236a4.95 4.95 0 0 1-.02.14l-2.302-.296c-.024.341.038.613.188.816.15.202.353.32.61.353a.807.807 0 0 0 .51-.088c.15-.084.277-.23.385-.442Zm-1.609-1.066 1.724.222c.01-.263-.031-.466-.123-.61a.808.808 0 0 0-.61-.385.843.843 0 0 0-.638.163c-.183.14-.3.343-.353.61Zm2.676 2.214.396-3.086.47.06-.06.468c.149-.204.278-.334.387-.39a.592.592 0 0 1 .351-.062c.176.023.348.102.516.238l-.242.462a.755.755 0 0 0-.37-.163.498.498 0 0 0-.321.065.556.556 0 0 0-.231.26 2.053 2.053 0 0 0-.166.6l-.207 1.615-.523-.067Zm5.285-.84.546.215c-.178.447-.436.773-.775.978-.338.203-.728.276-1.172.219-.459-.059-.82-.2-1.085-.423a1.786 1.786 0 0 1-.553-.898 2.938 2.938 0 0 1-.077-1.17c.057-.444.19-.82.402-1.128.213-.309.486-.529.82-.66a2.13 2.13 0 0 1 1.067-.125c.427.055.771.209 1.034.463.263.255.426.586.49.993l-.572.06c-.06-.323-.173-.567-.343-.732-.17-.166-.397-.267-.682-.303-.327-.042-.612.001-.853.13-.239.128-.42.32-.543.574a2.551 2.551 0 0 0-.238.8c-.047.361-.035.685.035.97.072.282.21.505.416.667.206.163.438.26.698.294.316.04.595-.017.837-.17.242-.155.425-.406.549-.754Zm3.066 1.524c-.215.14-.417.232-.606.277a1.62 1.62 0 0 1-.588.028c-.34-.044-.59-.16-.75-.347a.832.832 0 0 1-.192-.672.877.877 0 0 1 .464-.667c.122-.061.255-.102.4-.123.106-.014.264-.02.475-.019.429.004.747-.016.956-.06a7.23 7.23 0 0 0 .02-.136c.027-.213-.003-.37-.09-.47-.119-.135-.31-.22-.573-.253-.246-.032-.434-.012-.563.06-.128.07-.233.212-.317.423l-.503-.135c.075-.213.174-.38.297-.5a1 1 0 0 1 .502-.251c.211-.048.45-.055.715-.02.263.033.473.092.63.175a.845.845 0 0 1 .333.282.819.819 0 0 1 .117.375c.006.091-.006.253-.035.486l-.09.697c-.062.486-.091.796-.087.928.007.131.036.26.087.387l-.547-.07a1.118 1.118 0 0 1-.055-.395Zm.106-1.173c-.2.053-.493.082-.88.088a1.993 1.993 0 0 0-.47.046.456.456 0 0 0-.332.382.45.45 0 0 0 .112.37c.095.106.244.172.447.198.202.026.387.006.555-.061a.83.83 0 0 0 .392-.32c.071-.11.122-.281.151-.512l.025-.191Zm1.138 1.72.396-3.086.47.06-.06.468c.149-.203.278-.333.388-.39a.593.593 0 0 1 .35-.062c.176.023.348.102.516.238l-.242.462a.755.755 0 0 0-.37-.162.498.498 0 0 0-.32.065.555.555 0 0 0-.232.26 2.055 2.055 0 0 0-.166.599l-.207 1.615-.523-.067Zm3.99.512.05-.39c-.235.282-.542.398-.922.349a1.228 1.228 0 0 1-.654-.29 1.364 1.364 0 0 1-.407-.629 2.003 2.003 0 0 1-.06-.861c.039-.308.126-.58.26-.817.136-.24.315-.412.537-.52.223-.107.46-.144.714-.111a1.035 1.035 0 0 1 .797.534l.197-1.53.52.067-.547 4.26-.485-.062Zm-1.456-1.752c-.05.395-.005.701.136.918.142.217.326.34.552.37a.743.743 0 0 0 .617-.205c.185-.167.302-.443.352-.826.054-.423.012-.743-.125-.962a.757.757 0 0 0-1.184-.163c-.18.17-.295.459-.348.868Z" fill="#fff"/></svg>