<svg width="39" height="26" fill="none" xmlns="http://www.w3.org/2000/svg"><path d="M1.798.755h34.735a1.7 1.7 0 0 1 1.654 1.734v21.673a1.7 1.7 0 0 1-1.654 1.734H1.798a1.7 1.7 0 0 1-1.654-1.734V2.49A1.7 1.7 0 0 1 1.798.755Z" fill="#F1F1F1"/><path d="M.556 25.305a1.78 1.78 0 0 1-.41-1.141V2.49A1.7 1.7 0 0 1 1.802.755h34.734c.422.001.826.168 1.126.464L.56 25.305H.556Z" fill="#fff" fill-opacity=".73"/><path d="m14.792 18.72 1.3-2.35-.724-5.644h1.77l.287 3.34 1.733-3.34h1.828l-4.21 7.994h-1.984Zm-5.553-4.216c.273-1.374 1.6-1.81 3.562-1.81.117-.61-.272-.764-.934-.741a4.867 4.867 0 0 0-1.694.393l.155-1.373a7.938 7.938 0 0 1 1.985-.35c1.226-.021 2.589.37 2.278 1.963l-.76 3.75h-1.77l.116-.568a2.223 2.223 0 0 1-1.582.676c-.84-.004-1.586-.55-1.355-1.944l-.001.004Zm1.81-.087a.5.5 0 0 0 .468.785.91.91 0 0 0 .935-.742c.023-.168.056-.335.1-.5h-.448a1.2 1.2 0 0 0-1.054.453v.004Zm-7.91 1.92 1.464-7.173H7.91a1.844 1.844 0 0 1 1.76 2.44A2.75 2.75 0 0 1 6.94 13.96H5.556l-.475 2.376H3.139Zm2.693-3.75h.91a1.233 1.233 0 0 0 1.109-.982.718.718 0 0 0-.653-.98h-.95l-.416 1.961Z" fill="#3284AE"/><path d="M26.456 14.5c.276-1.374 1.617-1.809 3.606-1.809.138-.612-.256-.763-.926-.741a5.226 5.226 0 0 0-1.734.392l.158-1.373a8.511 8.511 0 0 1 2.029-.348c1.24-.022 2.6.369 2.285 1.96l-.768 3.75h-1.773l.118-.566c-.43.429-1.011.672-1.618.676-.858 0-1.614-.546-1.377-1.941Zm1.833-.087a.51.51 0 0 0 .493.785.9.9 0 0 0 .926-.74c.039-.175.059-.328.1-.5h-.433a1.24 1.24 0 0 0-1.09.454h.004Zm3.636 1.918 1.466-7.194h1.82l-1.485 7.194h-1.801Zm-11.57 0 1.463-7.171h3.3a1.85 1.85 0 0 1 1.757 2.44 2.749 2.749 0 0 1-2.745 2.355h-1.363l-.494 2.375h-1.917Zm2.688-3.75h.888a1.252 1.252 0 0 0 1.127-.98.73.73 0 0 0-.671-.98h-.948l-.396 1.96Z" fill="#3CA9C7"/></svg>