<svg width="21" height="21" fill="none" xmlns="http://www.w3.org/2000/svg"><path fill-rule="evenodd" clip-rule="evenodd" d="M20.81 16.918a10.108 10.108 0 0 0-5.545-5.766 6.1 6.1 0 0 0 2.227-4.663 6.33 6.33 0 0 0-5.77-6.202 6.24 6.24 0 0 0-1.536 0 6.32 6.32 0 0 0-5.764 6.202 6.102 6.102 0 0 0 2.227 4.663 10.099 10.099 0 0 0-5.547 5.766 2.414 2.414 0 0 0 .339 2.27 2.654 2.654 0 0 0 2.133 1.051h14.775a2.648 2.648 0 0 0 2.13-1.05 2.407 2.407 0 0 0 .331-2.27ZM7.036 6.49a3.807 3.807 0 0 1 3.518-3.725c.269-.033.54-.033.81 0a3.757 3.757 0 0 1 3.043 2.682 3.765 3.765 0 0 1-1.162 3.888 3.757 3.757 0 0 1-6.209-2.845ZM3.571 17.74a7.965 7.965 0 0 1 7.388-4.999 7.955 7.955 0 0 1 7.387 5H3.571Z" fill="#22262A"/></svg>