<svg width="69" height="89" fill="none" xmlns="http://www.w3.org/2000/svg"><path d="M.515 70.401v18.565h67.668V70.401a7.818 7.818 0 0 0-7.807-7.807H8.323A7.817 7.817 0 0 0 .515 70.4Zm5.205 0a2.606 2.606 0 0 1 2.603-2.602h2.602v15.966H5.72V70.401Zm10.411-2.602h6.73l11.488 11.488 11.489-11.488h6.725v15.966H16.131V67.799ZM62.978 70.4v13.36h-5.205V67.795h2.603a2.606 2.606 0 0 1 2.602 2.606Zm-24.501-2.602-4.128 4.127-4.127-4.127h8.255Z" fill="#FF6875"/><path d="M53.82 52.179h3.957v-5.205h2.602a7.817 7.817 0 0 0 7.808-7.807v-5.205a33.836 33.836 0 0 0-67.672.003v5.204a7.817 7.817 0 0 0 7.808 7.808h3.942a23.415 23.415 0 0 0 41.556 5.202Zm6.56-10.41h-2.754a23.4 23.4 0 0 0 .146-2.603V33.96c0-.87-.049-1.739-.146-2.602h2.748a2.606 2.606 0 0 1 2.603 2.602v5.205a2.606 2.606 0 0 1-2.602 2.607l.005-.005ZM34.35 5.335a28.68 28.68 0 0 1 27.588 20.979 7.812 7.812 0 0 0-1.562-.158h-3.944a23.422 23.422 0 0 0-44.167 0H8.323c-.525 0-1.049.053-1.563.158a28.68 28.68 0 0 1 27.59-20.98ZM49.294 23.56a18.293 18.293 0 0 1-14.946 7.802H16.317a18.212 18.212 0 0 1 32.978-7.802ZM8.323 41.773a2.606 2.606 0 0 1-2.603-2.602v-5.205a2.606 2.606 0 0 1 2.603-2.603h2.753a23.425 23.425 0 0 0-.146 2.603v5.205c0 .87.049 1.738.146 2.602H8.323Zm7.807-2.602v-2.603h18.22a23.51 23.51 0 0 0 17.46-7.814c.505 1.69.761 3.446.76 5.21v5.205a18.111 18.111 0 0 1-1.76 7.808h-8.654l-2.29-2.286a7.809 7.809 0 0 1-11.042 0l-3.68 3.68a13.013 13.013 0 0 0 17.009 1.21v2.598h4.928a18.209 18.209 0 0 1-30.95-13.01l-.001.002Z" fill="#FF6875"/></svg>