<svg width="39" height="26" fill="none" xmlns="http://www.w3.org/2000/svg"><path d="M1.748.792H36.73a1.7 1.7 0 0 1 1.666 1.734v21.676a1.7 1.7 0 0 1-1.666 1.733H1.748a1.7 1.7 0 0 1-1.666-1.733V2.526A1.7 1.7 0 0 1 1.748.792Z" fill="#353A40"/><path d="M22.77 17.356a1.47 1.47 0 0 1-.623-.606 2.041 2.041 0 0 1-.24-1.038 1.863 1.863 0 0 1 .474-1.356 1.767 1.767 0 0 1 1.32-.484 1.79 1.79 0 0 1 1.337.477 1.82 1.82 0 0 1 .469 1.335 2.23 2.23 0 0 1-.2 1.022 1.49 1.49 0 0 1-.592.62c-.298.158-.631.235-.967.223a2.176 2.176 0 0 1-.977-.193Zm.407-2.417a1.63 1.63 0 0 0 0 1.552.726.726 0 0 0 1.068 0c.151-.247.218-.538.19-.826.021-.26-.05-.52-.2-.734a.668.668 0 0 0-.536-.231.65.65 0 0 0-.522.24Zm-9.912 2.574a1.409 1.409 0 0 1-.5-.146 1.233 1.233 0 0 1-.368-.307 1.14 1.14 0 0 1-.23-.409 2.172 2.172 0 0 1-.1-.6v-2.118h1.072V16.1a.626.626 0 0 0 .159.454.669.669 0 0 0 .872 0 .63.63 0 0 0 .158-.457V13.93h1.07v2.118c.001.204-.033.407-.1.6-.06.184-.164.35-.3.489a1.2 1.2 0 0 1-.43.3 2.134 2.134 0 0 1-.751.118 4.769 4.769 0 0 1-.551-.043h-.001Zm15.139-.024-1.3-1.952v1.952h-1.01v-3.555h1l1.309 1.966v-1.966h1.012v3.555h-1.011Zm-9.978 0-1.3-1.952v1.952h-1.01v-3.555h1l1.308 1.966v-1.966h1.012v3.555h-1.01Zm1.77-.01v-3.548h1.08v3.549h-1.08ZM11.99 12.5a1.387 1.387 0 0 1-.387-.888l1.022-.065c.01.139.056.272.134.388a.565.565 0 0 0 .474.217.516.516 0 0 0 .355-.111.323.323 0 0 0 .006-.5 1.365 1.365 0 0 0-.55-.206 2.31 2.31 0 0 1-1.007-.432.877.877 0 0 1-.3-.686c0-.184.054-.363.155-.517a1.03 1.03 0 0 1 .467-.383c.272-.104.563-.152.855-.14.357-.023.712.066 1.016.255a1.1 1.1 0 0 1 .416.805l-1.012.061a.56.56 0 0 0-.17-.35.536.536 0 0 0-.357-.108.425.425 0 0 0-.282.081.253.253 0 0 0-.095.2.2.2 0 0 0 .079.154c.109.07.232.114.36.13.348.064.687.17 1.01.314.182.087.335.224.443.395.093.16.14.34.138.525.001.224-.063.443-.185.63a1.172 1.172 0 0 1-.517.439c-.266.107-.55.158-.836.15a1.7 1.7 0 0 1-1.232-.36v.002Zm16.414.29-1.3-1.953v1.953h-1.01V9.234h1l1.309 1.967V9.234h1.012v3.555h-1.011Zm-3.875 0-.574-1.087a.848.848 0 0 0-.195-.273.445.445 0 0 0-.264-.083h-.095v1.443h-1.08V9.234h1.79c.256-.01.513.02.76.087.175.057.324.17.426.323a1 1 0 0 1 .16.576c.005.178-.037.354-.122.511a.978.978 0 0 1-.34.347 1.295 1.295 0 0 1-.377.142c.099.03.193.073.28.13.064.055.121.119.17.188.058.068.108.142.152.22l.52 1.03H24.53Zm-1.127-2.116h.453c.096-.007.19-.023.284-.048a.288.288 0 0 0 .174-.111.335.335 0 0 0 .068-.207.331.331 0 0 0-.107-.265.638.638 0 0 0-.4-.091h-.472v.722Zm-4.6 2.116V9.234h2.878v.759h-1.8v.565h1.672v.726H19.88v.7h1.855v.805h-2.933Zm-2.652 0v-2.677h-1.095v-.878h3.265v.878h-1.1v2.677h-1.07Zm-7.865 0V9.234h2.878v.759h-1.8v.565h1.67v.726H9.357v.7h1.853v.805H8.286Zm-2.167 0-.61-2.24-.606 2.24H3.85l-.773-3.555h1.02l.367 1.99.538-1.99h1.016l.539 1.988.367-1.988h1.015l-.766 3.555H6.119ZM34.206 17.551v-8.38h1.2v8.38h-1.2Zm-2.99 0v-8.38h1.2v8.38h-1.2Z" fill="#ECD345"/></svg>